<svg width="28" height="28" viewBox="0 0 28 28" fill="none" xmlns="http://www.w3.org/2000/svg">
<circle cx="14" cy="14" r="14" fill="black"/>
<path d="M13.3984 14.0537C13.6362 14.3716 13.9396 14.6346 14.2879 14.8249C14.6363 15.0152 15.0215 15.1284 15.4175 15.1568C15.8135 15.1851 16.2109 15.128 16.5828 14.9893C16.9548 14.8505 17.2925 14.6334 17.5732 14.3527L19.2342 12.6916C19.7385 12.1695 20.0175 11.4702 20.0112 10.7443C20.0049 10.0185 19.7138 9.32413 19.2005 8.81084C18.6872 8.29756 17.9929 8.00641 17.267 8.0001C16.5411 7.9938 15.8418 8.27284 15.3197 8.77712L14.3674 9.72391" stroke="white" stroke-linecap="round" stroke-linejoin="round"/>
<path d="M15.6129 12.9461C15.3751 12.6282 15.0717 12.3652 14.7234 12.1749C14.375 11.9846 13.9898 11.8714 13.5938 11.843C13.1979 11.8147 12.8004 11.8718 12.4285 12.0105C12.0566 12.1493 11.7188 12.3664 11.4382 12.6471L9.77712 14.3082C9.27284 14.8303 8.9938 15.5296 9.0001 16.2555C9.00641 16.9813 9.29756 17.6757 9.81084 18.189C10.3241 18.7022 11.0185 18.9934 11.7443 18.9997C12.4702 19.006 13.1695 18.727 13.6916 18.2227L14.6384 17.2759" stroke="white" stroke-linecap="round" stroke-linejoin="round"/>
</svg>
