<svg width="147" height="50" viewBox="0 0 147 50" fill="none" xmlns="http://www.w3.org/2000/svg">
<path d="M0.424 32.356L4.384 28.108C5.752 29.524 7.108 30.568 8.452 31.24C9.82 31.888 11.272 32.212 12.808 32.212C14.056 32.212 15.04 31.984 15.76 31.528C16.48 31.072 16.84 30.436 16.84 29.62C16.84 29.068 16.6 28.612 16.12 28.252C15.664 27.892 14.884 27.568 13.78 27.28L8.524 25.912C6.796 25.456 5.464 24.676 4.528 23.572C3.616 22.468 3.16 21.124 3.16 19.54C3.16 17.044 4.048 15.076 5.824 13.636C7.624 12.172 10.048 11.44 13.096 11.44C15.184 11.44 17.212 11.824 19.18 12.592C21.172 13.36 22.852 14.428 24.22 15.796L20.404 20.116C19.18 18.916 17.92 18.028 16.624 17.452C15.352 16.876 13.996 16.588 12.556 16.588C11.452 16.588 10.576 16.792 9.928 17.2C9.28 17.608 8.956 18.148 8.956 18.82C8.956 19.348 9.16 19.78 9.568 20.116C10 20.452 10.696 20.74 11.656 20.98L16.588 22.168C18.628 22.648 20.188 23.452 21.268 24.58C22.348 25.708 22.888 27.1 22.888 28.756C22.888 30.052 22.636 31.24 22.132 32.32C21.628 33.376 20.92 34.276 20.008 35.02C19.096 35.764 17.98 36.34 16.66 36.748C15.34 37.156 13.888 37.36 12.304 37.36C9.952 37.36 7.756 36.928 5.716 36.064C3.676 35.2 1.912 33.964 0.424 32.356ZM21.8389 44.596L27.4909 17.956H33.1429L32.9629 18.784C33.6109 18.424 34.2829 18.16 34.9789 17.992C35.6749 17.8 36.3949 17.704 37.1389 17.704C38.3389 17.704 39.4549 17.932 40.4869 18.388C41.5189 18.844 42.4069 19.468 43.1509 20.26C43.9189 21.052 44.5189 21.988 44.9509 23.068C45.4069 24.148 45.6349 25.312 45.6349 26.56C45.6349 28.048 45.3469 29.44 44.7709 30.736C44.2189 32.032 43.4629 33.16 42.5029 34.12C41.5669 35.08 40.4389 35.848 39.1189 36.424C37.8229 36.976 36.4429 37.252 34.9789 37.252C33.9229 37.252 32.9269 37.096 31.9909 36.784C31.0789 36.448 30.2629 35.98 29.5429 35.38L27.5629 44.596H21.8389ZM35.5549 22.636C34.8829 22.636 34.2469 22.744 33.6469 22.96C33.0469 23.152 32.4949 23.452 31.9909 23.86L30.5869 30.484C31.0429 31.036 31.6309 31.48 32.3509 31.816C33.0949 32.128 33.8989 32.284 34.7629 32.284C36.2509 32.284 37.4989 31.78 38.5069 30.772C39.5389 29.74 40.0549 28.504 40.0549 27.064C40.0549 25.816 39.6229 24.772 38.7589 23.932C37.9189 23.068 36.8509 22.636 35.5549 22.636ZM67.4042 37L71.4363 17.956H77.1602L76.8003 19.648C77.4963 18.976 78.2523 18.472 79.0683 18.136C79.9083 17.776 80.7843 17.596 81.6963 17.596C82.2243 17.596 82.7043 17.656 83.1363 17.776C83.5923 17.872 83.9403 18.016 84.1803 18.208L83.1363 23.248C82.8963 23.056 82.4763 22.888 81.8763 22.744C81.3003 22.6 80.7483 22.528 80.2203 22.528C79.3563 22.528 78.5283 22.72 77.7363 23.104C76.9683 23.488 76.2963 24.016 75.7203 24.688L73.1283 37H67.4042ZM86.9385 30.88L88.6665 22.816H84.8865L85.8945 17.956H89.6745L90.7185 13.06L96.6945 11.8L95.3625 17.956H100.582L99.5745 22.816H94.3545L92.8065 29.98C92.6385 30.844 92.7225 31.468 93.0585 31.852C93.4185 32.236 94.0785 32.428 95.0385 32.428C95.4465 32.428 95.8305 32.404 96.1905 32.356C96.5745 32.308 96.9825 32.236 97.4145 32.14L96.4065 36.82C95.9505 36.916 95.3625 37 94.6425 37.072C93.9465 37.168 93.2985 37.216 92.6985 37.216C90.4185 37.216 88.7745 36.664 87.7665 35.56C86.7825 34.456 86.5065 32.896 86.9385 30.88Z" fill="black"/>
<path d="M106.118 37L111.482 11.8H117.53L112.166 37H106.118ZM116.278 37L121.642 11.8H130.318C131.998 11.8 133.558 12.088 134.998 12.664C136.438 13.24 137.674 14.032 138.706 15.04C139.762 16.024 140.59 17.212 141.19 18.604C141.79 19.972 142.09 21.46 142.09 23.068C142.09 24.94 141.694 26.728 140.902 28.432C140.134 30.136 139.09 31.624 137.77 32.896C136.474 34.144 134.938 35.14 133.162 35.884C131.41 36.628 129.562 37 127.618 37H116.278ZM129.562 17.272H126.538L123.478 31.528H128.05C129.106 31.528 130.102 31.324 131.038 30.916C131.998 30.484 132.814 29.92 133.486 29.224C134.182 28.504 134.734 27.664 135.142 26.704C135.55 25.72 135.754 24.676 135.754 23.572C135.754 21.772 135.166 20.272 133.99 19.072C132.814 17.872 131.338 17.272 129.562 17.272Z" fill="#5B75EB"/>
<g clip-path="url(#clip0_97_186)">
<path d="M56.0386 26.0295C56.0086 24.6093 55.7077 23.2078 55.1519 21.9006C51.605 23.5568 48.9995 26.6818 48.1089 30.3693C48.6301 31.5635 49.386 32.6408 50.3316 33.5373C51.2308 30.4104 53.2664 27.7326 56.0386 26.0295ZM54.5972 20.7795C54.0031 19.7444 53.246 18.8118 52.355 18.0177C48.8003 19.9631 46.6988 23.9904 47.4722 28.2599C48.7769 25.0138 51.3159 22.3224 54.5972 20.7795ZM61.9253 27.2287C62.2613 23.3302 60.8589 19.5138 58.1167 16.9006C57.5425 16.8341 56.1011 16.6857 54.2534 17.2326C56.514 19.5751 57.8168 22.6784 57.9058 25.9326C59.1507 26.6171 60.5151 27.0571 61.9253 27.2287ZM57.0542 27.5998C55.8392 28.3374 54.776 29.2999 53.9214 30.4357C57.1245 32.674 61.1284 33.3693 64.7613 32.3029C65.5427 31.2559 66.1035 30.0612 66.4097 28.7912C65.3767 29.0544 64.3155 29.1908 63.2495 29.1974C61.1167 29.1935 58.9956 28.6466 57.0542 27.5998ZM53.2144 31.4943C52.6206 32.5099 52.2105 33.6193 51.9605 34.7834C53.6933 35.8469 55.7177 36.3361 57.7449 36.181C59.7721 36.026 61.6986 35.2347 63.2495 33.9201C58.8394 34.549 55.3081 32.9513 53.2144 31.4943ZM60.2574 17.4084C62.4175 20.1584 63.48 23.7052 63.1714 27.3146C64.3614 27.3171 65.5443 27.1299 66.6753 26.7599C66.6753 26.6818 66.687 26.6037 66.687 26.5256C66.687 22.3146 64.0034 18.7482 60.2574 17.4084Z" fill="black"/>
</g>
<defs>
<clipPath id="clip0_97_186">
<rect width="20" height="20" fill="white" transform="translate(47 16.5186)"/>
</clipPath>
</defs>
</svg>
