<svg width="147" height="50" viewBox="0 0 147 50" fill="none" xmlns="http://www.w3.org/2000/svg">
<path d="M12.304 37.36C9.952 37.36 7.756 36.928 5.716 36.064C3.676 35.2 1.912 33.964 0.424 32.356L4.384 28.108C5.752 29.524 7.108 30.568 8.452 31.24C9.82 31.888 11.272 32.212 12.808 32.212C13.648 32.212 14.368 32.116 14.968 31.924C15.568 31.708 16.024 31.408 16.336 31.024C16.672 30.616 16.84 30.148 16.84 29.62C16.84 29.068 16.6 28.612 16.12 28.252C15.664 27.892 14.884 27.568 13.78 27.28L8.524 25.912C6.772 25.432 5.44 24.652 4.528 23.572C3.616 22.492 3.16 21.148 3.16 19.54C3.16 17.86 3.556 16.42 4.348 15.22C5.164 14.02 6.316 13.096 7.804 12.448C9.292 11.776 11.056 11.44 13.096 11.44C15.208 11.44 17.236 11.824 19.18 12.592C21.148 13.36 22.828 14.428 24.22 15.796L20.404 20.116C19.18 18.916 17.932 18.028 16.66 17.452C15.388 16.876 14.02 16.588 12.556 16.588C11.452 16.588 10.576 16.792 9.928 17.2C9.28 17.584 8.956 18.124 8.956 18.82C8.956 19.348 9.16 19.78 9.568 20.116C10 20.428 10.696 20.716 11.656 20.98L16.588 22.168C18.652 22.648 20.212 23.452 21.268 24.58C22.348 25.708 22.888 27.1 22.888 28.756C22.888 30.484 22.444 31.996 21.556 33.292C20.692 34.588 19.468 35.596 17.884 36.316C16.3 37.012 14.44 37.36 12.304 37.36ZM21.8749 44.344L27.4909 17.956H33.1429L32.9629 18.784C34.2589 18.064 35.6509 17.704 37.1389 17.704C38.7469 17.704 40.1869 18.1 41.4589 18.892C42.7309 19.66 43.7389 20.716 44.4829 22.06C45.2509 23.38 45.6349 24.88 45.6349 26.56C45.6349 28.048 45.3589 29.44 44.8069 30.736C44.2549 32.032 43.4869 33.172 42.5029 34.156C41.5429 35.116 40.4149 35.872 39.1189 36.424C37.8469 36.976 36.4669 37.252 34.9789 37.252C33.9229 37.252 32.9269 37.096 31.9909 36.784C31.0789 36.448 30.2629 35.98 29.5429 35.38L27.5989 44.344H21.8749ZM34.7629 32.284C35.7709 32.284 36.6709 32.056 37.4629 31.6C38.2549 31.12 38.8789 30.484 39.3349 29.692C39.8149 28.9 40.0549 28.024 40.0549 27.064C40.0549 26.224 39.8629 25.468 39.4789 24.796C39.0949 24.124 38.5549 23.596 37.8589 23.212C37.1869 22.828 36.4189 22.636 35.5549 22.636C34.8829 22.636 34.2469 22.744 33.6469 22.96C33.0469 23.152 32.4949 23.452 31.9909 23.86L30.5869 30.484C31.0669 31.036 31.6669 31.48 32.3869 31.816C33.1069 32.128 33.8989 32.284 34.7629 32.284ZM67.4042 37L71.4363 17.956H77.1602L76.8003 19.648C77.4963 18.976 78.2523 18.472 79.0683 18.136C79.9083 17.776 80.7843 17.596 81.6963 17.596C82.8243 17.596 83.6523 17.8 84.1803 18.208L83.1363 23.248C82.8963 23.056 82.4763 22.888 81.8763 22.744C81.3003 22.6 80.7483 22.528 80.2203 22.528C78.4443 22.528 76.9443 23.248 75.7203 24.688L73.1283 37H67.4042ZM92.6985 37.216C90.4185 37.216 88.7745 36.676 87.7665 35.596C86.7825 34.492 86.5065 32.92 86.9385 30.88L88.6665 22.816H84.8865L85.8945 17.956H89.6745L90.7185 13.06L96.6945 11.8L95.3625 17.956H100.582L99.5745 22.816H94.3545L92.8065 29.98C92.6385 30.844 92.7225 31.468 93.0585 31.852C93.4185 32.236 94.0785 32.428 95.0385 32.428C95.4465 32.428 95.8305 32.404 96.1905 32.356C96.5745 32.308 96.9825 32.236 97.4145 32.14L96.4065 36.82C95.9505 36.916 95.3625 37 94.6425 37.072C93.9465 37.168 93.2985 37.216 92.6985 37.216ZM106.118 37L111.482 11.8H117.53L112.166 37H106.118ZM116.278 37L121.642 11.8H130.318C131.998 11.8 133.546 12.088 134.962 12.664C136.402 13.216 137.65 14.008 138.706 15.04C139.786 16.048 140.614 17.236 141.19 18.604C141.79 19.972 142.09 21.46 142.09 23.068C142.09 24.964 141.706 26.752 140.938 28.432C140.17 30.112 139.114 31.6 137.77 32.896C136.45 34.168 134.914 35.176 133.162 35.92C131.434 36.64 129.586 37 127.618 37H116.278ZM123.478 31.528H128.05C129.13 31.528 130.126 31.324 131.038 30.916C131.974 30.508 132.79 29.944 133.486 29.224C134.206 28.48 134.758 27.628 135.142 26.668C135.55 25.708 135.754 24.676 135.754 23.572C135.754 22.348 135.478 21.268 134.926 20.332C134.398 19.372 133.666 18.628 132.73 18.1C131.818 17.548 130.762 17.272 129.562 17.272H126.538L123.478 31.528Z" fill="white"/>
<g clip-path="url(#clip0_1040_848)">
<path d="M56.0386 26.0304C56.0086 24.6102 55.7077 23.2088 55.1519 21.9015C51.605 23.5578 48.9995 26.6828 48.1089 30.3703C48.6301 31.5645 49.386 32.6418 50.3316 33.5383C51.2308 30.4114 53.2664 27.7335 56.0386 26.0304ZM54.5972 20.7804C54.0031 19.7453 53.246 18.8128 52.355 18.0187C48.8003 19.964 46.6988 23.9914 47.4722 28.2609C48.7769 25.0148 51.3159 22.3234 54.5972 20.7804ZM61.9253 27.2297C62.2613 23.3312 60.8589 19.5148 58.1167 16.9015C57.5425 16.8351 56.1011 16.6867 54.2534 17.2336C56.514 19.5761 57.8168 22.6794 57.9058 25.9336C59.1507 26.6181 60.5151 27.0581 61.9253 27.2297ZM57.0542 27.6008C55.8392 28.3384 54.776 29.3009 53.9214 30.4367C57.1245 32.675 61.1284 33.3703 64.7613 32.3039C65.5427 31.2569 66.1035 30.0622 66.4097 28.7922C65.3767 29.0554 64.3155 29.1918 63.2495 29.1984C61.1167 29.1945 58.9956 28.6476 57.0542 27.6008ZM53.2144 31.4953C52.6206 32.5109 52.2105 33.6203 51.9605 34.7843C53.6933 35.8479 55.7177 36.337 57.7449 36.182C59.7721 36.027 61.6986 35.2357 63.2495 33.9211C58.8394 34.55 55.3081 32.9523 53.2144 31.4953ZM60.2574 17.4093C62.4175 20.1593 63.48 23.7062 63.1714 27.3156C64.3614 27.3181 65.5443 27.1309 66.6753 26.7609C66.6753 26.6828 66.687 26.6047 66.687 26.5265C66.687 22.3156 64.0034 18.7492 60.2574 17.4093Z" fill="white"/>
</g>
<defs>
<clipPath id="clip0_1040_848">
<rect width="20" height="20" fill="white" transform="translate(47 16.5195)"/>
</clipPath>
</defs>
</svg>
