<svg width="15" height="17" viewBox="0 0 15 17" fill="none" xmlns="http://www.w3.org/2000/svg">
<path d="M13.387 13.7283C12.366 14.6801 11.095 15.3214 9.72281 15.5772C8.3506 15.833 6.93391 15.6927 5.63852 15.1728C4.34312 14.6528 3.2226 13.7747 2.40807 12.6411C1.59354 11.5076 1.11869 10.1655 1.03907 8.77191C0.959457 7.37833 1.27838 5.9909 1.95851 4.77196C2.63865 3.55302 3.65187 2.55299 4.87962 1.88888C6.10737 1.22477 7.49886 0.924055 8.89127 1.02192C10.2837 1.11979 11.6194 1.61218 12.7422 2.4415C11.4021 2.72144 10.207 3.47308 9.37426 4.5597C8.5415 5.64633 8.12641 6.99576 8.2045 8.36256C8.28258 9.72936 8.84865 11.0227 9.79974 12.0074C10.7508 12.9922 12.2416 13.3585 13.6049 13.484L13.387 13.7283Z" stroke="black" stroke-linecap="round" stroke-linejoin="round"/>
</svg>
