<svg width="15" height="17" viewBox="0 0 15 17" fill="none" xmlns="http://www.w3.org/2000/svg">
<path d="M13.3283 13.6695C12.3073 14.6213 11.0363 15.2626 9.66408 15.5184C8.29187 15.7742 6.87518 15.6339 5.57979 15.1139C4.2844 14.594 3.16388 13.7158 2.34935 12.5823C1.53481 11.4487 1.05996 10.1067 0.980344 8.71308C0.90073 7.3195 1.21965 5.93206 1.89979 4.71312C2.57992 3.49418 3.59314 2.49415 4.82089 1.83004C6.04864 1.16593 7.44013 0.865217 8.83255 0.963082C10.225 1.06095 11.5607 1.55335 12.6835 2.38266C11.3434 2.6626 10.1483 3.41424 9.31553 4.50087C8.48277 5.58749 8.06769 6.93692 8.14577 8.30372C8.22385 9.67052 8.78992 10.9639 9.74101 11.9486C10.6921 12.9333 12.1829 13.2997 13.5462 13.4252L13.3283 13.6695Z" fill="white" stroke="white" stroke-linecap="round" stroke-linejoin="round"/>
</svg>
