<svg xmlns="http://www.w3.org/2000/svg" xmlns:xlink="http://www.w3.org/1999/xlink" version="1.1" width="256" height="256" viewBox="0 0 256 256" xml:space="preserve">
<desc>Created with Fabric.js 1.7.22</desc>
<defs>
</defs>
<g transform="translate(128 128) scale(0.72 0.72)" style="">
	<g style="stroke: none; stroke-width: 0; stroke-dasharray: none; stroke-linecap: butt; stroke-linejoin: miter; stroke-miterlimit: 10; fill: none; fill-rule: nonzero; opacity: 1;" transform="translate(-175.05 -175.05000000000004) scale(3.89 3.89)" >
	<path d="M 19.99 2.898 l 12.806 12.814 c 2.528 2.529 2.528 6.63 0 9.16 l 0 0 c 0 0 0 0 0 0 L 27.31 30.36 c -2.184 2.185 -2.184 5.729 0 7.914 l 24.445 24.461 c 2.184 2.185 5.725 2.185 7.909 0 l 2.146 -2.148 l 3.339 -3.341 l 0 0 c 2.528 -2.529 6.626 -2.529 9.153 0 l 12.806 12.814 c 2.528 2.529 2.528 6.63 0 9.16 l -3.339 3.341 l -0.035 -0.035 c -0.277 0.322 -0.565 0.635 -0.868 0.938 C 71.069 95.271 44.431 87.756 23.369 66.68 S -5.203 18.948 6.595 7.142 c 0.302 -0.303 0.616 -0.591 0.937 -0.868 L 7.497 6.239 l 3.339 -3.341 C 13.364 0.368 17.462 0.368 19.99 2.898 z" style="stroke: none; stroke-width: 1; stroke-dasharray: none; stroke-linecap: butt; stroke-linejoin: miter; stroke-miterlimit: 10; fill: rgb(42,128,221); fill-rule: nonzero; opacity: 1;" transform=" matrix(1 0 0 1 0 0) " stroke-linecap="round" />
	<path d="M 67.662 90 c -13.366 0.001 -30.53 -8.133 -45 -22.613 C 12.356 57.075 4.911 45.113 1.697 33.706 C -1.573 22.097 -0.085 12.412 5.888 6.434 c 0.247 -0.246 0.499 -0.484 0.757 -0.714 c 0.04 -0.068 0.088 -0.131 0.145 -0.189 L 10.13 2.19 C 11.541 0.778 13.417 0 15.413 0 c 1.995 0 3.872 0.778 5.283 2.19 l 12.806 12.814 c 1.411 1.412 2.189 3.29 2.189 5.287 s -0.777 3.875 -2.189 5.287 l -5.485 5.489 c -0.868 0.868 -1.346 2.022 -1.346 3.249 c 0 1.228 0.478 2.382 1.346 3.25 l 24.445 24.461 c 0.867 0.868 2.02 1.346 3.247 1.346 c 1.227 0 2.381 -0.479 3.248 -1.346 l 5.485 -5.489 c 1.411 -1.413 3.288 -2.191 5.284 -2.191 c 1.997 0 3.874 0.778 5.285 2.191 l 12.805 12.814 c 2.913 2.915 2.913 7.659 0 10.575 l -3.34 3.341 c -0.059 0.059 -0.124 0.109 -0.194 0.151 c -0.228 0.257 -0.465 0.508 -0.709 0.752 C 79.626 88.124 74.08 90 67.662 90 z M 8.401 6.75 C 8.347 6.857 8.275 6.954 8.184 7.032 C 7.881 7.293 7.586 7.565 7.301 7.85 c -5.438 5.442 -6.745 14.432 -3.679 25.313 c 3.123 11.083 10.387 22.735 20.454 32.809 C 44.713 86.624 70.768 94.154 82.16 82.757 c 0.286 -0.285 0.557 -0.58 0.817 -0.883 c 0.086 -0.1 0.189 -0.181 0.305 -0.239 l 3.12 -3.121 c 2.134 -2.136 2.134 -5.61 0 -7.745 L 73.596 57.955 c -1.034 -1.035 -2.408 -1.604 -3.87 -1.604 s -2.837 0.57 -3.87 1.604 l -5.486 5.489 c -1.245 1.246 -2.9 1.933 -4.662 1.933 c -1.761 0 -3.416 -0.687 -4.661 -1.933 L 26.603 38.982 c -1.245 -1.246 -1.931 -2.903 -1.931 -4.665 c 0 -1.762 0.686 -3.419 1.931 -4.664 l 5.485 -5.489 c 2.134 -2.136 2.134 -5.61 0 -7.745 L 19.283 3.605 l 0 0 c -1.034 -1.034 -2.408 -1.604 -3.869 -1.604 c -1.462 0 -2.836 0.57 -3.87 1.604 L 8.401 6.75 z" style="stroke: none; stroke-width: 1; stroke-dasharray: none; stroke-linecap: butt; stroke-linejoin: miter; stroke-miterlimit: 10; fill: rgb(0,0,0); fill-rule: nonzero; opacity: 1;" transform=" matrix(1 0 0 1 0 0) " stroke-linecap="round" />
	<path d="M 83.769 83.563 c -0.256 0 -0.512 -0.098 -0.707 -0.293 L 68.827 69.024 c -0.391 -0.391 -0.391 -1.024 0 -1.415 c 0.391 -0.391 1.023 -0.391 1.414 0 l 14.235 14.246 c 0.391 0.391 0.391 1.024 0 1.415 C 84.281 83.465 84.025 83.563 83.769 83.563 z" style="stroke: none; stroke-width: 1; stroke-dasharray: none; stroke-linecap: butt; stroke-linejoin: miter; stroke-miterlimit: 10; fill: rgb(0,0,0); fill-rule: nonzero; opacity: 1;" transform=" matrix(1 0 0 1 0 0) " stroke-linecap="round" />
	<path d="M 29.456 29.213 c -0.256 0 -0.512 -0.098 -0.707 -0.293 L 14.155 14.316 c -0.391 -0.391 -0.391 -1.024 0 -1.415 s 1.023 -0.391 1.414 0 l 14.594 14.605 c 0.391 0.391 0.391 1.024 0 1.415 C 29.968 29.116 29.712 29.213 29.456 29.213 z" style="stroke: none; stroke-width: 1; stroke-dasharray: none; stroke-linecap: butt; stroke-linejoin: miter; stroke-miterlimit: 10; fill: rgb(0,0,0); fill-rule: nonzero; opacity: 1;" transform=" matrix(1 0 0 1 0 0) " stroke-linecap="round" />
</g>
</g>
</svg>