<svg width="29" height="29" viewBox="0 0 16 16" fill="none" xmlns="http://www.w3.org/2000/svg">
<path d="M7.99877 0.313965C3.76061 0.313965 0.3125 3.76207 0.3125 8.00024C0.3125 12.2384 3.76061 15.6865 7.99877 15.6865C12.2369 15.6865 15.685 12.2384 15.685 8.00024C15.685 3.76207 12.2369 0.313965 7.99877 0.313965ZM8.07268 3.86148C8.5989 3.86148 9.11331 4.01752 9.55085 4.30987C9.98839 4.60223 10.3294 5.01776 10.5308 5.50393C10.7322 5.9901 10.7849 6.52506 10.6822 7.04117C10.5795 7.55728 10.3261 8.03136 9.95403 8.40346C9.58193 8.77556 9.10786 9.02896 8.59174 9.13162C8.07563 9.23428 7.54067 9.18159 7.0545 8.98021C6.56833 8.77884 6.1528 8.43782 5.86044 8.00028C5.56809 7.56274 5.41205 7.04833 5.41205 6.52211C5.41205 5.81646 5.69236 5.13972 6.19133 4.64076C6.69029 4.14179 7.36704 3.86148 8.07268 3.86148ZM7.99877 14.504C7.10172 14.5044 6.21433 14.3187 5.39269 13.9587C4.57104 13.5987 3.83299 13.0722 3.22515 12.4125C3.55182 10.7207 6.48591 10.3652 7.99877 10.3652C9.51164 10.3652 12.4457 10.7207 12.7724 12.4121C12.1646 13.0719 11.4266 13.5985 10.6049 13.9586C9.78329 14.3187 8.89587 14.5044 7.99877 14.504Z" fill="black"/>
</svg>
