<svg width="16" height="16" viewBox="0 0 16 16" fill="none" xmlns="http://www.w3.org/2000/svg">
<path d="M8 0.313721C3.76183 0.313721 0.313726 3.76183 0.313726 7.99999C0.313726 12.2382 3.76183 15.6863 8 15.6863C12.2382 15.6863 15.6863 12.2382 15.6863 7.99999C15.6863 3.76183 12.2382 0.313721 8 0.313721ZM8.07391 3.86123C8.60013 3.86123 9.11454 4.01727 9.55208 4.30963C9.98961 4.60198 10.3306 5.01752 10.532 5.50368C10.7334 5.98985 10.7861 6.52482 10.6834 7.04093C10.5808 7.55704 10.3274 8.03112 9.95526 8.40322C9.58316 8.77531 9.10908 9.02871 8.59297 9.13137C8.07686 9.23404 7.54189 9.18135 7.05573 8.97997C6.56956 8.77859 6.15402 8.43757 5.86167 8.00003C5.56932 7.56249 5.41327 7.04809 5.41327 6.52186C5.41327 5.81622 5.69359 5.13948 6.19255 4.64051C6.69152 4.14155 7.36826 3.86123 8.07391 3.86123ZM8 14.5038C7.10294 14.5041 6.21556 14.3185 5.39391 13.9584C4.57227 13.5984 3.83421 13.0719 3.22638 12.4122C3.55305 10.7205 6.48713 10.365 8 10.365C9.51286 10.365 12.447 10.7205 12.7736 12.4118C12.1659 13.0717 11.4278 13.5983 10.6062 13.9584C9.78451 14.3184 8.89709 14.5042 8 14.5038Z" fill="white"/>
</svg>
