<svg width="34" height="34" viewBox="0 0 34 34" fill="none" xmlns="http://www.w3.org/2000/svg">
<path d="M17.0013 1.4165C8.39463 1.4165 1.41797 8.39316 1.41797 16.9998C1.41797 25.6065 8.39463 32.5832 17.0013 32.5832C25.608 32.5832 32.5846 25.6065 32.5846 16.9998C32.5846 8.39316 25.608 1.4165 17.0013 1.4165Z" stroke="white" stroke-width="1.5" stroke-linecap="round" stroke-linejoin="round"/>
<path d="M4.95703 26.8891C4.95703 26.8891 8.43056 22.4541 17.0014 22.4541C25.5722 22.4541 29.0473 26.8891 29.0473 26.8891" stroke="white" stroke-width="1.5" stroke-linecap="round" stroke-linejoin="round"/>
<path d="M17.0031 16.9999C18.243 16.9999 19.4321 16.5074 20.3088 15.6306C21.1856 14.7539 21.6781 13.5648 21.6781 12.3249C21.6781 11.085 21.1856 9.89591 20.3088 9.01918C19.4321 8.14245 18.243 7.6499 17.0031 7.6499C15.7632 7.6499 14.5741 8.14245 13.6974 9.01918C12.8207 9.89591 12.3281 11.085 12.3281 12.3249C12.3281 13.5648 12.8207 14.7539 13.6974 15.6306C14.5741 16.5074 15.7632 16.9999 17.0031 16.9999V16.9999Z" stroke="white" stroke-width="1.5" stroke-linecap="round" stroke-linejoin="round"/>
</svg>
