<svg width="12" height="12" viewBox="0 0 12 12" fill="none" xmlns="http://www.w3.org/2000/svg">
<path d="M5.13177 10.263C6.27036 10.2627 7.37615 9.8816 8.27305 9.18024L11.093 12L12 11.093L9.18009 8.27325C9.88186 7.3763 10.2633 6.27032 10.2635 5.13149C10.2635 2.30212 7.9613 0 5.13177 0C2.30224 0 0 2.30212 0 5.13149C0 7.96087 2.30224 10.263 5.13177 10.263ZM5.13177 1.28287C7.2544 1.28287 8.9806 3.00898 8.9806 5.13149C8.9806 7.254 7.2544 8.98011 5.13177 8.98011C3.00914 8.98011 1.28294 7.254 1.28294 5.13149C1.28294 3.00898 3.00914 1.28287 5.13177 1.28287Z" fill="black"/>
<path d="M6.03752 4.22447C6.28064 4.46821 6.41471 4.79021 6.41471 5.13146H7.69765C7.69822 4.79434 7.63196 4.46045 7.50269 4.14909C7.37343 3.83773 7.18373 3.55508 6.94456 3.31748C5.97338 2.34762 4.28952 2.34762 3.31897 3.31748L4.22473 4.22575C4.71225 3.73954 5.55257 3.74083 6.03752 4.22447Z" fill="black"/>
</svg>
